# xmcd
#
# Track frame offsets:
#	150
#	15915
#	28005
#	47041
#	56404
#	75151
#	88670
#	108438
#	120395
#	137189
#	150896
#	163558
#	178411
#	196125
#	215962
#	235017
#	252188
#	270286
#	283144
#	297171
#	312333
#	334944
#
# Disc length: 4690 seconds
#
# Revision: 1
# Processed by: cddbd v1.5.2PL0 Copyright (c) Steve Scherf et al.
# Submitted via: audiograbber 1.83.01
#
DISCID=2a125016
DTITLE=Melinda Schneider and Beccy Cole - Great Women Of Country
DYEAR=2014
DGENRE=Country
TTITLE0=9 To 5
TTITLE1=One's On The Way
TTITLE2=The Night The Lights Went Out In Georgia
TTITLE3=Your Good Girl's Gonna Go Bad
TTITLE4=Angel Of The Morning
TTITLE5=D.I.V.O.R.C.E.
TTITLE6=Ode To Billy Joe
TTITLE7=Stand By Your Man
TTITLE8=Grandpa (Tell Me 'Bout The Good Old Days)
TTITLE9=Muleskinner Blues/Rocky Top
TTITLE10=Crazy
TTITLE11=Harper Valley PTA
TTITLE12=Banks Of The Ohio/If Not For You/Let Me Be There
TTITLE13=I Fall To Pieces/Walking After Midnight
TTITLE14=I Will Always Love You
TTITLE15=Could I Have This Dance/Tennessee Waltz
TTITLE16=Blue Bayou
TTITLE17=Jolene
TTITLE18=Coat Of Many Colours
TTITLE19=Queen Of Hearts
TTITLE20=I Can't Make You Love Me
TTITLE21=Love Hurts
EXTD=
EXTT0=
EXTT1=
EXTT2=
EXTT3=
EXTT4=
EXTT5=
EXTT6=
EXTT7=
EXTT8=
EXTT9=
EXTT10=
EXTT11=
EXTT12=
EXTT13=
EXTT14=
EXTT15=
EXTT16=
EXTT17=
EXTT18=
EXTT19=
EXTT20=
EXTT21=
PLAYORDER=
